<svg width="730" height="322" viewBox="0 0 730 322" fill="none" xmlns="http://www.w3.org/2000/svg">
<path d="M32.8903 217.751C80.8904 136.751 74.8904 119.751 81.8904 79.7506C90.8904 119.751 81.8904 135.751 131.89 217.751C172.476 284.311 119.89 321.751 81.8904 321.751C43.8904 321.751 -13.8053 296.55 32.8903 217.751Z" fill="#D94242"/>
<path d="M104.041 66.3058L117.345 43.8091L115.047 25.9085L92.5504 11.8784L76.4641 15.5069L88.9219 29.537L97.7512 38.2454L104.041 49.6147C102.468 50.6629 99.0091 56.654 97.7512 64.0077C96.4934 71.3615 101.42 68.6038 104.041 66.3058Z" fill="#5B2929"/>
<path d="M113.475 64.8544L117.345 48.6471L119.764 32.198L91.4619 19.3773L77.9156 17.4421L100.291 35.5845L108.274 50.4614L106.581 64.0078C109.29 74.9416 112.306 69.128 113.475 64.8544Z" fill="#843C3C"/>
<path d="M120.853 68.4829C123.514 70.66 126.537 65.4592 125.449 63.0402L120.853 42.1158L111.177 19.8611L97.5094 12.3622C95.413 12.4428 95.4533 7.64513 86.1401 10.7898C82.5117 15.0231 83.2287 14.5712 84.205 18.5306C85.9466 25.5941 99.7672 30.0612 103.799 32.077C103.218 35.8506 108.516 43.8091 111.177 46.3491C111.499 50.9049 113.886 61.7097 120.853 68.4829Z" fill="#BF5B5B"/>
<path d="M91.7197 0.249405H0.609283V22.3213C7.62334 21.6252 16.6842 26.0917 20.3378 28.412C25.2105 42.1598 38.9002 50.0923 45.136 52.3401C49.3415 53.7903 59.1013 57.5172 64.496 60.8237C69.8906 64.1301 78.0552 63.5065 81.4631 62.7814C85.8862 61.7521 91.7197 61.4678 90.5993 56.6906C85.5526 49.0336 77.7946 50.5998 71.4568 50.5998C66.3044 47.1957 60.4354 43.3446 55.1423 40.8047C59.6521 34.496 63.0458 30.0029 64.496 25.1491C69.2816 25.1491 85.5236 22.2487 88.6415 21.2336C94.5583 27.4984 105.029 28.6296 109.524 28.412C108.828 32.0665 115.698 41.5638 117.831 44.172C117.09 46.5794 116.853 50.3601 120.853 59.6934C124.853 69.0267 127.845 63.5823 128.956 59.6934L126.416 40.8047L117.831 18.0271L91.7197 0.249405Z" fill="#FF8080"/>
<path d="M600.89 138.249C648.89 57.2494 642.89 40.2494 649.89 0.249405C658.89 40.2494 649.89 56.2494 699.89 138.249C740.476 204.81 687.89 242.249 649.89 242.249C611.89 242.249 554.194 217.048 600.89 138.249Z" fill="#D94242"/>
<path d="M625.959 255.694L612.655 278.191L614.953 296.091L637.45 310.122L653.536 306.493L641.078 292.463L632.249 283.755L625.959 272.385C627.532 271.337 630.991 265.346 632.249 257.992C633.507 250.639 628.58 253.396 625.959 255.694Z" fill="#5B2929"/>
<path d="M616.525 257.146L612.655 273.353L610.236 289.802L638.538 302.623L652.084 304.558L629.709 286.415L621.726 271.539L623.419 257.992C620.71 247.058 617.694 252.872 616.525 257.146Z" fill="#843C3C"/>
<path d="M609.147 253.517C606.486 251.34 603.463 256.541 604.551 258.96L609.147 279.884L618.823 302.139L632.491 309.638C634.587 309.557 634.547 314.355 643.86 311.21C647.488 306.977 646.771 307.429 645.795 303.469C644.053 296.406 630.233 291.939 626.201 289.923C626.782 286.149 621.484 278.191 618.823 275.651C618.501 271.095 616.114 260.29 609.147 253.517Z" fill="#BF5B5B"/>
<path d="M638.28 321.751H729.391V299.679C722.377 300.375 713.316 295.908 709.662 293.588C704.79 279.84 691.1 271.908 684.864 269.66C680.658 268.21 670.899 264.483 665.504 261.176C660.109 257.87 651.945 258.494 648.537 259.219C644.114 260.248 638.28 260.532 639.401 265.309C644.447 272.966 652.205 271.4 658.543 271.4C663.696 274.804 669.565 278.655 674.858 281.195C670.348 287.504 666.954 291.997 665.504 296.851C660.718 296.851 644.476 299.751 641.358 300.766C635.442 294.502 624.971 293.37 620.476 293.588C621.172 289.934 614.302 280.436 612.169 277.828C612.91 275.421 613.147 271.64 609.147 262.307C605.147 252.973 602.155 258.418 601.044 262.307L603.584 281.195L612.169 303.973L638.28 321.751Z" fill="#FF8080"/>
</svg>
